<svg width="71" height="71" viewBox="0 0 71 71" fill="none" xmlns="http://www.w3.org/2000/svg">
<rect width="71" height="71" rx="35.5" fill="#393939"/>
<path d="M40.8652 23.1936L28.0727 27.4436C19.4735 30.3195 19.4735 35.0086 28.0727 37.8703L31.8693 39.1311L33.1302 42.9278C35.9918 51.527 40.6952 51.527 43.5568 42.9278L47.821 30.1495C49.7193 24.412 46.6027 21.2811 40.8652 23.1936ZM41.3185 30.8153L35.9352 36.227C35.7227 36.4395 35.4535 36.5386 35.1843 36.5386C34.9152 36.5386 34.646 36.4395 34.4335 36.227C34.0227 35.8161 34.0227 35.1361 34.4335 34.7253L39.8168 29.3136C40.2277 28.9028 40.9077 28.9028 41.3185 29.3136C41.7293 29.7245 41.7293 30.4045 41.3185 30.8153Z" fill="white"/>
</svg>
