<svg width="207" height="207" viewBox="0 0 207 207" fill="none" xmlns="http://www.w3.org/2000/svg">
<path d="M105.703 104.262C94.3737 90.4338 77.1635 81.6099 57.8923 81.6099C38.6211 81.6099 21.4109 90.4338 10.0815 104.262C21.4109 118.09 38.6211 126.914 57.8923 126.914C77.1635 126.914 94.3737 118.09 105.703 104.262Z" fill="#3BC7A2"/>
<path d="M103.76 106.205C89.9321 94.8757 81.1082 77.6655 81.1082 58.3943C81.1082 39.1231 89.9321 21.9129 103.76 10.5835C117.588 21.9129 126.412 39.1231 126.412 58.3943C126.412 77.6654 117.588 94.8757 103.76 106.205Z" fill="#FFA866"/>
<path d="M103.221 101.78C117.049 113.109 125.873 130.319 125.873 149.59C125.873 168.862 117.049 186.072 103.221 197.401C89.3933 186.072 80.5694 168.862 80.5694 149.59C80.5694 130.319 89.3933 113.109 103.221 101.78Z" fill="#78C2FF"/>
<path d="M101.278 103.722C112.607 117.55 129.818 126.374 149.089 126.374C168.36 126.374 185.57 117.55 196.9 103.722C185.57 89.8945 168.36 81.0706 149.089 81.0706C129.818 81.0706 112.607 89.8945 101.278 103.722Z" fill="black"/>
</svg>
